<svg width="25" height="24" viewBox="0 0 25 24" fill="none" xmlns="http://www.w3.org/2000/svg">
<path d="M6.375 4C5.84457 4 5.33586 4.21071 4.96079 4.58579C4.58571 4.96086 4.375 5.46957 4.375 6V18C4.375 18.5304 4.58571 19.0391 4.96079 19.4142C5.33586 19.7893 5.84457 20 6.375 20H18.375C18.9054 20 19.4141 19.7893 19.7892 19.4142C20.1643 19.0391 20.375 18.5304 20.375 18V6C20.375 5.46957 20.1643 4.96086 19.7892 4.58579C19.4141 4.21071 18.9054 4 18.375 4H6.375ZM6.375 2H18.375C19.4359 2 20.4533 2.42143 21.2034 3.17157C21.9536 3.92172 22.375 4.93913 22.375 6V18C22.375 19.0609 21.9536 20.0783 21.2034 20.8284C20.4533 21.5786 19.4359 22 18.375 22H6.375C5.31413 22 4.29672 21.5786 3.54657 20.8284C2.79643 20.0783 2.375 19.0609 2.375 18V6C2.375 4.93913 2.79643 3.92172 3.54657 3.17157C4.29672 2.42143 5.31413 2 6.375 2ZM13.375 13V17C13.375 17.2652 13.2696 17.5196 13.0821 17.7071C12.8946 17.8946 12.6402 18 12.375 18C12.1098 18 11.8554 17.8946 11.6679 17.7071C11.4804 17.5196 11.375 17.2652 11.375 17V13H7.375C7.10978 13 6.85543 12.8946 6.66789 12.7071C6.48036 12.5196 6.375 12.2652 6.375 12C6.375 11.7348 6.48036 11.4804 6.66789 11.2929C6.85543 11.1054 7.10978 11 7.375 11H11.375V7C11.375 6.73478 11.4804 6.48043 11.6679 6.29289C11.8554 6.10536 12.1098 6 12.375 6C12.6402 6 12.8946 6.10536 13.0821 6.29289C13.2696 6.48043 13.375 6.73478 13.375 7V11H17.375C17.6402 11 17.8946 11.1054 18.0821 11.2929C18.2696 11.4804 18.375 11.7348 18.375 12C18.375 12.2652 18.2696 12.5196 18.0821 12.7071C17.8946 12.8946 17.6402 13 17.375 13H13.375Z" fill="#ABB8CA"/>
</svg>
