<svg width="29" height="28" viewBox="0 0 29 28" fill="none" xmlns="http://www.w3.org/2000/svg">
<path d="M22.2917 2.33337H10.625C9.33817 2.33337 8.29167 3.37987 8.29167 4.66671V11.6667H5.95833C4.6715 11.6667 3.625 12.7132 3.625 14V24.5C3.625 24.8095 3.74792 25.1062 3.96671 25.325C4.1855 25.5438 4.48225 25.6667 4.79167 25.6667H23.4583C23.7678 25.6667 24.0645 25.5438 24.2833 25.325C24.5021 25.1062 24.625 24.8095 24.625 24.5V4.66671C24.625 3.37987 23.5785 2.33337 22.2917 2.33337ZM5.95833 14H12.9583V23.3334H5.95833V14ZM22.2917 23.3334H15.2917V14C15.2917 12.7132 14.2452 11.6667 12.9583 11.6667H10.625V4.66671H22.2917V23.3334Z" fill="#FFA737"/>
<path d="M12.9587 7H15.292V9.33333H12.9587V7ZM17.6253 7H19.9587V9.33333H17.6253V7ZM17.6253 11.7028H19.9587V14H17.6253V11.7028ZM17.6253 16.3333H19.9587V18.6667H17.6253V16.3333ZM8.29199 16.3345H10.6253V18.6678H8.29199V16.3345Z" fill="#FFA737"/>
</svg>
