<svg width="29" height="28" viewBox="0 0 29 28" fill="none" xmlns="http://www.w3.org/2000/svg">
<path d="M23.0421 2.33337H11.3754C10.0886 2.33337 9.04207 3.37987 9.04207 4.66671V11.1837L3.55057 16.6752C3.38746 16.8384 3.27638 17.0462 3.23139 17.2725C3.18639 17.4988 3.2095 17.7333 3.29778 17.9465C3.38606 18.1596 3.53556 18.3418 3.72737 18.47C3.91918 18.5982 4.14469 18.6667 4.3754 18.6667V24.5C4.3754 24.8095 4.49832 25.1062 4.71711 25.325C4.9359 25.5438 5.23265 25.6667 5.54207 25.6667H24.2087C24.5182 25.6667 24.8149 25.5438 25.0337 25.325C25.2525 25.1062 25.3754 24.8095 25.3754 24.5V4.66671C25.3754 3.37987 24.3289 2.33337 23.0421 2.33337ZM13.7087 23.3334H6.70874V16.8164L10.2087 13.3164L13.7087 16.8164V23.3334ZM23.0421 23.3334H16.0421V18.6667C16.273 18.6672 16.4989 18.5991 16.6911 18.471C16.8833 18.3429 17.0331 18.1606 17.1214 17.9472C17.2098 17.7338 17.2328 17.499 17.1875 17.2725C17.1422 17.046 17.0306 16.8382 16.8669 16.6752L11.3754 11.1837V4.66671H23.0421V23.3334Z" fill="#FFA737"/>
<path d="M13.7087 7H16.042V9.33333H13.7087V7ZM18.3753 7H20.7087V9.33333H18.3753V7ZM18.3753 11.7028H20.7087V14H18.3753V11.7028ZM18.3753 16.3333H20.7087V18.6667H18.3753V16.3333ZM9.04199 17.5H11.3753V19.8333H9.04199V17.5Z" fill="#FFA737"/>
</svg>
