<svg width="29" height="28" viewBox="0 0 29 28" fill="none" xmlns="http://www.w3.org/2000/svg">
<path d="M22.542 10.5H10.8753C9.58666 10.5 8.54199 11.5447 8.54199 12.8333V19.8333C8.54199 21.122 9.58666 22.1667 10.8753 22.1667H22.542C23.8307 22.1667 24.8753 21.122 24.8753 19.8333V12.8333C24.8753 11.5447 23.8307 10.5 22.542 10.5Z" stroke="#FFA737" stroke-width="2" stroke-linecap="round" stroke-linejoin="round"/>
<path d="M16.7083 18.6667C17.997 18.6667 19.0417 17.622 19.0417 16.3333C19.0417 15.0447 17.997 14 16.7083 14C15.4197 14 14.375 15.0447 14.375 16.3333C14.375 17.622 15.4197 18.6667 16.7083 18.6667Z" stroke="#FFA737" stroke-width="2" stroke-linecap="round" stroke-linejoin="round"/>
<path d="M20.2083 10.5V8.16671C20.2083 7.54787 19.9625 6.95438 19.5249 6.51679C19.0873 6.07921 18.4938 5.83337 17.875 5.83337H6.20833C5.58949 5.83337 4.996 6.07921 4.55842 6.51679C4.12083 6.95438 3.875 7.54787 3.875 8.16671V15.1667C3.875 15.7855 4.12083 16.379 4.55842 16.8166C4.996 17.2542 5.58949 17.5 6.20833 17.5H8.54167" stroke="#FFA737" stroke-width="2" stroke-linecap="round" stroke-linejoin="round"/>
</svg>
