<svg width="29" height="28" viewBox="0 0 29 28" fill="none" xmlns="http://www.w3.org/2000/svg">
<path d="M9.375 5.25H19.875V7H9.375V5.25Z" fill="#FFA737"/>
<path d="M9.375 8.75H19.875V10.5H9.375V8.75Z" fill="#FFA737"/>
<path d="M9.375 21H14.625V22.75H9.375V21Z" fill="#FFA737"/>
<path d="M9.375 12.25H14.625V14H9.375V12.25Z" fill="#FFA737"/>
<path d="M21.625 26.25H7.625C7.16101 26.2495 6.71616 26.065 6.38807 25.7369C6.05999 25.4088 5.87546 24.964 5.875 24.5V3.5C5.87546 3.03601 6.05999 2.59116 6.38807 2.26307C6.71616 1.93499 7.16101 1.75046 7.625 1.75H21.625C22.089 1.75046 22.5338 1.93499 22.8619 2.26307C23.19 2.59116 23.3745 3.03601 23.375 3.5V24.5C23.3745 24.964 23.19 25.4088 22.8619 25.7369C22.5338 26.065 22.089 26.2495 21.625 26.25ZM7.625 3.5V24.5H21.625V3.5H7.625Z" fill="#FFA737"/>
</svg>
