<svg width="24" height="24" viewBox="0 0 24 24" fill="none" xmlns="http://www.w3.org/2000/svg">
<path d="M19.5 3H4.5C4.10218 3 3.72064 3.15804 3.43934 3.43934C3.15804 3.72064 3 4.10218 3 4.5V19.5C3 19.8978 3.15804 20.2794 3.43934 20.5607C3.72064 20.842 4.10218 21 4.5 21H19.5C19.8978 21 20.2794 20.842 20.5607 20.5607C20.842 20.2794 21 19.8978 21 19.5V4.5C21 4.10218 20.842 3.72064 20.5607 3.43934C20.2794 3.15804 19.8978 3 19.5 3Z" fill="#FB4B4E" stroke="#373939" stroke-width="2"/>
<path d="M9.71999 7C9.94199 7 10.147 7.1205 10.255 7.315L11.003 8.6625C11.101 8.839 11.1055 9.0525 11.015 9.2325L10.5 10.5C10.5 10.5 10.626 11.626 11.5 12.5C12.374 13.374 13.5 13.5 13.5 13.5L14.7635 12.981C14.9435 12.891 15.1575 12.896 15.334 12.9935L16.6855 13.745C16.8795 13.853 17 14.0575 17 14.28V15.8315C17 16.6215 16.266 17.192 15.5175 16.9395C13.9795 16.4205 11.5925 15.433 10.08 13.9195C8.56699 12.407 7.57949 10.0205 7.06049 8.4825C6.80799 7.734 7.37849 7 8.16849 7H9.71999Z" fill="#FB4B4E" stroke="white" stroke-width="1.959" stroke-linejoin="round"/>
</svg>
