<svg width="48" height="48" viewBox="0 0 48 48" fill="none" xmlns="http://www.w3.org/2000/svg">
<rect x="1" y="1" width="46" height="46" rx="11" fill="#FFD687"/>
<path d="M25 24H27C27.2652 24 27.5196 24.1054 27.7071 24.2929C27.8946 24.4805 28 24.7348 28 25C28 25.2653 27.8946 25.5196 27.7071 25.7072C27.5196 25.8947 27.2652 26 27 26H24C23.7348 26 23.4804 25.8947 23.2929 25.7072C23.1054 25.5196 23 25.2653 23 25V20C23 19.7348 23.1054 19.4805 23.2929 19.2929C23.4804 19.1054 23.7348 19 24 19C24.2652 19 24.5196 19.1054 24.7071 19.2929C24.8946 19.4805 25 19.7348 25 20V24ZM32.63 22.438C33.0274 23.7807 33.106 25.1975 32.8596 26.5759C32.6132 27.9542 32.0485 29.2561 31.2106 30.3779C30.3727 31.4997 29.2846 32.4105 28.0329 33.038C26.7811 33.6654 25.4002 33.9921 24 33.9921C22.5998 33.9921 21.2189 33.6654 19.9672 33.038C18.7154 32.4105 17.6273 31.4997 16.7894 30.3779C15.9515 29.2561 15.3869 27.9542 15.1405 26.5759C14.8941 25.1975 14.9727 23.7807 15.37 22.438C14.8999 21.9419 14.5365 21.3546 14.3023 20.7124C14.0681 20.0703 13.968 19.387 14.0083 18.7047C14.0485 18.0223 14.2283 17.3555 14.5364 16.7454C14.8445 16.1352 15.2744 15.5948 15.7996 15.1573C16.3248 14.7198 16.9341 14.3947 17.5898 14.202C18.2456 14.0093 18.934 13.9531 19.6123 14.0368C20.2907 14.1206 20.9447 14.3425 21.5339 14.689C22.1231 15.0354 22.635 15.499 23.038 16.051C23.6775 15.9831 24.3225 15.9831 24.962 16.051C25.365 15.499 25.8769 15.0354 26.4662 14.689C27.0554 14.3425 27.7093 14.1206 28.3877 14.0368C29.0661 13.9531 29.7544 14.0093 30.4102 14.202C31.066 14.3947 31.6753 14.7198 32.2004 15.1573C32.7256 15.5948 33.1556 16.1352 33.4637 16.7454C33.7717 17.3555 33.9515 18.0223 33.9917 18.7047C34.032 19.387 33.9319 20.0703 33.6977 20.7124C33.4635 21.3546 33.1001 21.9419 32.63 22.438ZM31.692 20.325C31.9899 19.7212 32.076 19.0347 31.9364 18.376C31.7968 17.7174 31.4398 17.1248 30.9226 16.6936C30.4055 16.2625 29.7583 16.0178 29.0852 15.999C28.4122 15.9802 27.7524 16.1884 27.212 16.59C29.0774 17.3052 30.6529 18.6188 31.692 20.325ZM20.787 16.59C20.2466 16.1884 19.5868 15.9802 18.9138 15.999C18.2407 16.0178 17.5936 16.2625 17.0764 16.6936C16.5593 17.1248 16.2022 17.7174 16.0626 18.376C15.9231 19.0347 16.0091 19.7212 16.307 20.325C17.3461 18.6188 18.9216 17.3052 20.787 16.59ZM24 32C24.9193 32 25.8295 31.819 26.6788 31.4672C27.5281 31.1154 28.2997 30.5998 28.9498 29.9498C29.5998 29.2998 30.1154 28.5281 30.4672 27.6788C30.8189 26.8296 31 25.9193 31 25C31 24.0808 30.8189 23.1705 30.4672 22.3213C30.1154 21.472 29.5998 20.7003 28.9498 20.0503C28.2997 19.4003 27.5281 18.8847 26.6788 18.5329C25.8295 18.1811 24.9193 18 24 18C22.1435 18 20.363 18.7375 19.0503 20.0503C17.7375 21.3631 17 23.1435 17 25C17 26.8566 17.7375 28.637 19.0503 29.9498C20.363 31.2625 22.1435 32 24 32Z" fill="#373939"/>
<rect x="1" y="1" width="46" height="46" rx="11" stroke="white" stroke-width="2"/>
</svg>
