<svg width="29" height="28" viewBox="0 0 29 28" fill="none" xmlns="http://www.w3.org/2000/svg">
<path d="M18.7913 4.66671C18.7913 3.37171 19.8297 2.33337 21.1247 2.33337C22.4197 2.33337 23.458 3.37171 23.458 4.66671C23.458 5.96171 22.4197 7.00004 21.1247 7.00004C19.8297 7.00004 18.7913 5.96171 18.7913 4.66671ZM23.458 24.5V18.6667H24.753C25.5463 18.6667 26.1063 17.885 25.8613 17.1267L23.4113 9.76504C23.2553 9.30037 22.9575 8.89629 22.5599 8.6096C22.1623 8.32291 21.6849 8.16802 21.1947 8.16671H21.0547C20.5641 8.16626 20.0858 8.32047 19.6879 8.6074C19.2899 8.89434 18.9925 9.29941 18.838 9.76504L17.8347 12.775C19.0947 13.475 19.958 14.7934 19.958 16.3334V25.6667H22.2913C22.933 25.6667 23.458 25.1417 23.458 24.5ZM14.708 13.4167C15.6763 13.4167 16.458 12.635 16.458 11.6667C16.458 10.6984 15.6763 9.91671 14.708 9.91671C13.7397 9.91671 12.958 10.6984 12.958 11.6667C12.958 12.635 13.7397 13.4167 14.708 13.4167ZM6.54134 7.00004C7.83634 7.00004 8.87467 5.96171 8.87467 4.66671C8.87467 3.37171 7.83634 2.33337 6.54134 2.33337C5.24634 2.33337 4.20801 3.37171 4.20801 4.66671C4.20801 5.96171 5.24634 7.00004 6.54134 7.00004ZM8.87467 24.5V17.5H9.45801C10.0997 17.5 10.6247 16.975 10.6247 16.3334V10.5C10.6247 9.21671 9.57468 8.16671 8.29134 8.16671H4.79134C3.50801 8.16671 2.45801 9.21671 2.45801 10.5V16.3334C2.45801 16.975 2.98301 17.5 3.62467 17.5H4.20801V24.5C4.20801 25.1417 4.73301 25.6667 5.37467 25.6667H7.70801C8.34967 25.6667 8.87467 25.1417 8.87467 24.5ZM11.7913 16.3334V19.8334C11.7913 20.475 12.3163 21 12.958 21V24.5C12.958 25.1417 13.483 25.6667 14.1247 25.6667H15.2913C15.933 25.6667 16.458 25.1417 16.458 24.5V21C17.0997 21 17.6247 20.475 17.6247 19.8334V16.3334C17.6247 15.3767 16.8313 14.5834 15.8747 14.5834H13.5413C12.5847 14.5834 11.7913 15.3767 11.7913 16.3334Z" fill="#FFA737"/>
</svg>
