<svg width="12" height="12" viewBox="0 0 12 12" fill="none" xmlns="http://www.w3.org/2000/svg">
<path d="M2.5015 11H9.5015C10.053 11 10.5015 10.5515 10.5015 10V5.50001C10.5016 5.43434 10.4887 5.36931 10.4635 5.30864C10.4384 5.24798 10.4015 5.19288 10.355 5.14651L6.355 1.14651C6.3086 1.10004 6.2535 1.06317 6.19284 1.03801C6.13218 1.01286 6.06716 0.999908 6.0015 0.999908C5.93583 0.999908 5.87081 1.01286 5.81015 1.03801C5.74949 1.06317 5.69439 1.10004 5.648 1.14651L1.648 5.14651C1.6015 5.19288 1.56462 5.24798 1.53948 5.30864C1.51434 5.36931 1.50143 5.43434 1.5015 5.50001V10C1.5015 10.5515 1.95 11 2.5015 11ZM5.0015 10V7.50001H7.0015V10H5.0015ZM2.5015 5.70701L6.0015 2.20701L9.5015 5.70701L9.502 10H8.0015V7.50001C8.0015 6.94851 7.553 6.50001 7.0015 6.50001H5.0015C4.45 6.50001 4.0015 6.94851 4.0015 7.50001V10H2.5015V5.70701Z" fill="white"/>
</svg>
