<svg width="28" height="28" viewBox="0 0 28 28" fill="none" xmlns="http://www.w3.org/2000/svg">
<path fill-rule="evenodd" clip-rule="evenodd" d="M5.34872 22.6163C5.78543 23.053 6.37774 23.2983 6.99534 23.2983C7.61294 23.2983 8.20525 23.053 8.64195 22.6163C9.07866 22.1796 9.32401 21.5873 9.32401 20.9697C9.32401 20.3521 9.07866 19.7598 8.64195 19.3231C8.20525 18.8863 7.61294 18.641 6.99534 18.641C6.37774 18.641 5.78543 18.8863 5.34872 19.3231C4.91201 19.7598 4.66667 20.3521 4.66667 20.9697C4.66667 21.5873 4.91201 22.1796 5.34872 22.6163ZM5.13206 13.7242C5.36929 13.9137 5.67117 14.003 5.97334 13.9732C6.97582 13.848 7.99347 13.9385 8.95878 14.2366C9.92408 14.5346 10.815 15.0345 11.5724 15.7031C12.3298 16.3717 12.9364 17.1936 13.3519 18.1145C13.7674 19.0354 13.9824 20.0341 13.9825 21.0443V22.134C13.9825 22.4428 14.1052 22.739 14.3235 22.9573C14.5419 23.1757 14.838 23.2983 15.1468 23.2983C15.4556 23.2983 15.7518 23.1757 15.9701 22.9573C16.1885 22.739 16.3112 22.4428 16.3112 22.134V21.0432C16.3111 19.7028 16.026 18.3777 15.4747 17.1559C14.9235 15.9341 14.1187 14.8435 13.1139 13.9565C12.109 13.0694 10.9269 12.4062 9.64617 12.0108C8.36542 11.6154 7.01522 11.4969 5.68517 11.6632C5.38493 11.7085 5.11425 11.8692 4.93085 12.1112C4.74745 12.3532 4.66585 12.6573 4.70343 12.9586C4.74102 13.2599 4.89483 13.5346 5.13206 13.7242ZM4.72525 5.45825C4.67628 5.60325 4.65637 5.75648 4.66667 5.90918C4.67675 6.0621 4.71691 6.21036 4.78486 6.34772C4.85281 6.48509 4.94721 6.60769 5.06264 6.70849C5.17808 6.80929 5.31228 6.88631 5.45754 6.93514C5.60281 6.98396 5.75629 7.00363 5.90917 6.99301C10.7451 6.67037 15.1751 8.81699 17.967 12.3543L19.9523 11.1138C16.7111 6.87496 11.4759 4.28749 5.75167 4.66901C5.59896 4.67909 5.44974 4.71918 5.31253 4.78698C5.17533 4.85478 5.05284 4.94897 4.95206 5.06415C4.85129 5.17934 4.77422 5.31326 4.72525 5.45825ZM21.0691 12.7743L19.0929 14.0091C20.1538 15.8343 20.8211 17.9258 20.9708 20.1752C21.0128 20.8017 21.0128 21.4305 20.9708 22.0582C20.9503 22.3664 21.053 22.6701 21.2563 22.9026C21.4597 23.135 21.7471 23.2772 22.0553 23.2978C22.3634 23.3183 22.6672 23.2156 22.8996 23.0123C23.1321 22.8089 23.2743 22.5215 23.2948 22.2133C23.3438 21.483 23.3438 20.7503 23.2948 20.02C23.1184 17.3737 22.327 14.915 21.0691 12.7743Z" fill="#FFA737"/>
</svg>
