<svg width="29" height="28" viewBox="0 0 29 28" fill="none" xmlns="http://www.w3.org/2000/svg">
<path d="M11.7093 14C13.0521 14 14.0426 13.0095 14.0426 11.6667C14.0426 10.3239 13.0521 9.33337 11.7093 9.33337C10.3665 9.33337 9.37598 10.3239 9.37598 11.6667C9.37598 13.0095 10.3653 14 11.7093 14Z" fill="#FFA737"/>
<path d="M23.708 4.66663H5.04134C3.75451 4.66663 2.70801 5.64779 2.70801 6.85413V21.1458C2.70801 22.3521 3.75451 23.3333 5.04134 23.3333H23.708C24.9948 23.3333 26.0413 22.3521 26.0413 21.1458V6.85413C26.0413 5.64779 24.9948 4.66663 23.708 4.66663ZM23.708 21L5.04134 20.9871V6.99996L23.708 7.01279V21Z" fill="#FFA737"/>
<path d="M16.7083 10.5H21.375V12.8333H16.7083V10.5ZM17.875 15.1667H21.375V17.5H17.875V15.1667ZM16.0433 18.1253C16.0433 16.5223 14.088 14.875 11.7092 14.875C9.33033 14.875 7.375 16.5223 7.375 18.1253V18.6667H16.0433V18.1253Z" fill="#FFA737"/>
</svg>
