<svg width="29" height="28" viewBox="0 0 29 28" fill="none" xmlns="http://www.w3.org/2000/svg">
<path d="M21.3753 2.34504L7.37533 2.33337C6.08033 2.33337 5.04199 3.37171 5.04199 4.66671V23.3334C5.04199 24.6284 6.08033 25.6667 7.37533 25.6667H21.3753C22.6703 25.6667 23.7087 24.6284 23.7087 23.3334V4.66671C23.7087 3.37171 22.6703 2.34504 21.3753 2.34504ZM21.3753 23.3334H7.37533L7.36366 4.66671H21.3753V23.3334Z" fill="#FFA737"/>
<path d="M9.70866 8.16671C10.353 8.16671 10.8753 7.64437 10.8753 7.00004C10.8753 6.35571 10.353 5.83337 9.70866 5.83337C9.06433 5.83337 8.54199 6.35571 8.54199 7.00004C8.54199 7.64437 9.06433 8.16671 9.70866 8.16671Z" fill="#FFA737"/>
<path d="M13.2087 8.16671C13.853 8.16671 14.3753 7.64437 14.3753 7.00004C14.3753 6.35571 13.853 5.83337 13.2087 5.83337C12.5643 5.83337 12.042 6.35571 12.042 7.00004C12.042 7.64437 12.5643 8.16671 13.2087 8.16671Z" fill="#FFA737"/>
<path d="M14.3753 22.1667C17.5953 22.1667 20.2087 19.5533 20.2087 16.3333C20.2087 13.1133 17.5953 10.5 14.3753 10.5C11.1553 10.5 8.54199 13.1133 8.54199 16.3333C8.54199 19.5533 11.1553 22.1667 14.3753 22.1667ZM17.1287 13.58C18.6453 15.0967 18.6453 17.57 17.1287 19.0867C15.612 20.6033 13.1387 20.6033 11.622 19.0867L17.1287 13.58Z" fill="#FFA737"/>
</svg>
