<svg width="576" height="128" viewBox="0 0 576 128" fill="none" xmlns="http://www.w3.org/2000/svg">
    <circle cx="36.2669" cy="24.0002" r="8" fill="#FB4B4E" stroke="#FFFFFF" stroke-width="5.33333" />
    <circle cx="91.7331" cy="65.5988" r="8" fill="#FB4B4E" stroke="#FFFFFF" stroke-width="5.33333" />
    <circle cx="91.7331" cy="104" r="8" fill="#FB4B4E" stroke="#FFFFFF" stroke-width="5.33333" />
    <path
        d="M44.5339 24.2661C62.9339 21.5994 63.2006 37.0661 62.9339 57.0661C62.6673 77.0661 58.6673 104.799 82.9339 104.799"
        stroke="#FFFFFF" stroke-width="5.33333" />
    <path d="M83.4664 66.1328H62.3998" stroke="#FFFFFF" stroke-width="5.33333" />
    <path
        d="M153.92 113C150.763 113 148.544 112.147 147.264 110.44C146.069 108.733 145.472 106.387 145.472 103.4V67.048H137.28V60.904C140.011 60.904 142.016 60.6907 143.296 60.264C144.661 59.752 145.515 58.5573 145.856 56.68C146.197 54.8027 146.368 51.7307 146.368 47.464H153.408V60.904H165.44V67.048H153.408V106.344H165.568V113H153.92ZM203.414 114.28C197.697 114.28 192.961 113 189.206 110.44C185.537 107.795 182.806 104.424 181.014 100.328C179.307 96.1467 178.454 91.8373 178.454 87.4C178.454 82.536 179.393 78.0987 181.27 74.088C183.233 69.992 186.049 66.7493 189.718 64.36C193.473 61.9707 197.953 60.776 203.158 60.776C209.814 60.776 215.361 62.952 219.798 67.304C224.235 71.5707 226.625 77.3307 226.966 84.584C227.051 84.9253 227.094 85.4373 227.094 86.12C227.094 86.7173 227.094 87.272 227.094 87.784H186.39C186.39 93.8427 187.841 98.6213 190.742 102.12C193.729 105.533 197.91 107.24 203.286 107.24C207.297 107.24 210.71 106.216 213.526 104.168C216.427 102.12 218.219 99.3467 218.902 95.848H226.966C226.113 101.139 223.595 105.533 219.414 109.032C215.233 112.531 209.899 114.28 203.414 114.28ZM186.646 83.304H218.646C218.646 81.512 218.134 79.3787 217.11 76.904C216.171 74.4293 214.55 72.296 212.246 70.504C210.027 68.6267 206.955 67.688 203.03 67.688C199.446 67.688 196.502 68.456 194.198 69.992C191.894 71.528 190.145 73.4907 188.95 75.88C187.755 78.2693 186.987 80.744 186.646 83.304ZM243.884 113V60.904H251.308L252.204 74.6C252.716 72.296 253.74 70.0773 255.276 67.944C256.812 65.8107 258.903 64.104 261.548 62.824C264.279 61.4587 267.649 60.8187 271.66 60.904H274.092V69.992H271.532C266.071 69.992 261.932 70.8027 259.116 72.424C256.385 73.96 254.508 76.136 253.484 78.952C252.545 81.768 252.076 85.0107 252.076 88.68V113H243.884ZM295.949 113.128H287.629V40.936H295.949V89.448L324.365 60.776H334.861L312.077 83.304L335.373 113.128H325.261L306.189 89.064L295.949 99.176V113.128ZM370.024 114.28C364.307 114.28 359.571 113 355.816 110.44C352.147 107.795 349.416 104.424 347.624 100.328C345.917 96.1467 345.064 91.8373 345.064 87.4C345.064 82.536 346.003 78.0987 347.88 74.088C349.843 69.992 352.659 66.7493 356.328 64.36C360.083 61.9707 364.563 60.776 369.768 60.776C376.424 60.776 381.971 62.952 386.408 67.304C390.845 71.5707 393.235 77.3307 393.576 84.584C393.661 84.9253 393.704 85.4373 393.704 86.12C393.704 86.7173 393.704 87.272 393.704 87.784H353C353 93.8427 354.451 98.6213 357.352 102.12C360.339 105.533 364.52 107.24 369.896 107.24C373.907 107.24 377.32 106.216 380.136 104.168C383.037 102.12 384.829 99.3467 385.512 95.848H393.576C392.723 101.139 390.205 105.533 386.024 109.032C381.843 112.531 376.509 114.28 370.024 114.28ZM353.256 83.304H385.256C385.256 81.512 384.744 79.3787 383.72 76.904C382.781 74.4293 381.16 72.296 378.856 70.504C376.637 68.6267 373.565 67.688 369.64 67.688C366.056 67.688 363.112 68.456 360.808 69.992C358.504 71.528 356.755 73.4907 355.56 75.88C354.365 78.2693 353.597 80.744 353.256 83.304ZM411.006 113V40.936H419.07V113H411.006ZM459.261 114.28C450.898 114.28 444.626 111.805 440.445 106.856C436.349 101.821 434.301 95.4213 434.301 87.656C434.216 79.8053 436.264 73.4053 440.445 68.456C444.712 63.4213 450.984 60.8613 459.261 60.776C467.453 60.776 473.64 63.2507 477.821 68.2C482.088 73.064 484.221 79.5493 484.221 87.656C484.221 92.6907 483.325 97.2133 481.533 101.224C479.741 105.235 477.01 108.435 473.341 110.824C469.672 113.128 464.978 114.28 459.261 114.28ZM459.261 107.112C463.698 107.112 467.112 106.131 469.501 104.168C471.976 102.205 473.682 99.7307 474.621 96.744C475.645 93.672 476.157 90.5573 476.157 87.4C476.157 84.2427 475.645 81.128 474.621 78.056C473.682 74.984 471.976 72.4667 469.501 70.504C467.112 68.5413 463.698 67.56 459.261 67.56C454.824 67.56 451.368 68.5413 448.893 70.504C446.504 72.4667 444.797 74.984 443.773 78.056C442.834 81.128 442.365 84.2427 442.365 87.4C442.365 90.5573 442.834 93.672 443.773 96.744C444.797 99.7307 446.504 102.205 448.893 104.168C451.368 106.131 454.824 107.112 459.261 107.112ZM501.121 113V40.936H509.185V113H501.121ZM544.128 114.152C539.349 114.152 535.424 113 532.352 110.696C529.28 108.307 526.976 105.107 525.44 101.096C523.989 97.0853 523.264 92.52 523.264 87.4C523.264 79.5493 524.971 73.1067 528.384 68.072C531.883 62.952 537.131 60.392 544.128 60.392C547.712 60.392 550.699 61.032 553.088 62.312C555.563 63.5067 557.525 65 558.976 66.792C560.512 68.584 561.621 70.2907 562.304 71.912H562.432V60.904H570.88V113H563.84L562.56 102.888H562.304C561.536 104.595 560.427 106.344 558.976 108.136C557.525 109.843 555.563 111.293 553.088 112.488C550.699 113.597 547.712 114.152 544.128 114.152ZM547.328 106.856C552.619 106.856 556.416 105.107 558.72 101.608C561.109 98.1093 562.304 93.416 562.304 87.528C562.304 81.2133 561.067 76.392 558.592 73.064C556.203 69.736 552.448 68.072 547.328 68.072C541.696 68.072 537.643 69.9493 535.168 73.704C532.779 77.3733 531.584 81.9387 531.584 87.4C531.584 93.1173 532.821 97.8107 535.296 101.48C537.771 105.064 541.781 106.856 547.328 106.856Z"
        fill="#FFFFFF" />
</svg>
