<svg width="29" height="28" viewBox="0 0 29 28" fill="none" xmlns="http://www.w3.org/2000/svg">
<path d="M14.8746 5.36088C13.6034 4.192 11.9395 3.54327 10.2126 3.54321C9.29853 3.54416 8.39371 3.72587 7.55016 4.07786C6.70662 4.42985 5.94101 4.94519 5.2974 5.59421C2.55224 8.35105 2.5534 12.663 5.29974 15.4082L13.8537 23.9622C14.0521 24.311 14.4347 24.5362 14.8746 24.5362C15.0552 24.5345 15.2328 24.4904 15.3933 24.4075C15.5538 24.3246 15.6926 24.2053 15.7986 24.059L24.4494 15.4082C27.1957 12.6619 27.1957 8.35105 24.4471 5.58955C23.8038 4.94172 23.0388 4.42743 22.1961 4.07624C21.3534 3.72506 20.4495 3.54391 19.5366 3.54321C17.8097 3.5435 16.1459 4.1922 14.8746 5.36088ZM22.7974 7.23921C24.6209 9.07205 24.6221 11.935 22.7997 13.7585L14.8746 21.6837L6.9494 13.7585C5.12707 11.935 5.12824 9.07205 6.94707 7.24388C7.83374 6.36188 8.9934 5.87655 10.2126 5.87655C11.4317 5.87655 12.5867 6.36188 13.4664 7.24155L14.0497 7.82488C14.158 7.93332 14.2866 8.01934 14.4281 8.07804C14.5696 8.13674 14.7213 8.16695 14.8746 8.16695C15.0278 8.16695 15.1795 8.13674 15.321 8.07804C15.4626 8.01934 15.5912 7.93332 15.6994 7.82488L16.2827 7.24155C18.0467 5.48105 21.0357 5.48571 22.7974 7.23921Z" fill="#FFA737"/>
</svg>
