<svg width="29" height="28" viewBox="0 0 29 28" fill="none" xmlns="http://www.w3.org/2000/svg">
<g clip-path="url(#clip0)">
<path d="M14.3753 16.3333V18.6666C12.5188 18.6666 10.7383 19.4041 9.42558 20.7169C8.11282 22.0296 7.37533 23.8101 7.37533 25.6666H5.04199C5.04199 23.1913 6.02532 20.8173 7.77566 19.067C9.526 17.3166 11.9 16.3333 14.3753 16.3333ZM14.3753 15.1666C10.5078 15.1666 7.37533 12.0341 7.37533 8.16663C7.37533 4.29913 10.5078 1.16663 14.3753 1.16663C18.2428 1.16663 21.3753 4.29913 21.3753 8.16663C21.3753 12.0341 18.2428 15.1666 14.3753 15.1666ZM14.3753 12.8333C16.9537 12.8333 19.042 10.745 19.042 8.16663C19.042 5.58829 16.9537 3.49996 14.3753 3.49996C11.797 3.49996 9.70866 5.58829 9.70866 8.16663C9.70866 10.745 11.797 12.8333 14.3753 12.8333ZM24.6747 24.5828L21.3753 28L18.076 24.5828C16.2525 22.6951 16.2525 19.6361 18.076 17.7485C18.5014 17.3014 19.0132 16.9455 19.5804 16.7023C20.1476 16.4592 20.7582 16.3338 21.3753 16.3338C21.9924 16.3338 22.6031 16.4592 23.1702 16.7023C23.7374 16.9455 24.2492 17.3014 24.6747 17.7485C26.4982 19.6361 26.4982 22.6951 24.6747 24.5828ZM22.997 22.9611C23.9455 21.9788 23.9455 20.3525 22.997 19.3701C22.7892 19.1482 22.5381 18.9712 22.2591 18.8502C21.9802 18.7293 21.6794 18.6669 21.3753 18.6669C21.0713 18.6669 20.7705 18.7293 20.4915 18.8502C20.2126 18.9712 19.9614 19.1482 19.7537 19.3701C18.8052 20.3525 18.8052 21.9788 19.7537 22.9623L21.3753 24.64L22.997 22.96V22.9611Z" fill="#FFA737"/>
</g>
<defs>
<clipPath id="clip0">
<rect width="28" height="28" fill="white" transform="translate(0.375)"/>
</clipPath>
</defs>
</svg>
