<svg width="24" height="24" viewBox="0 0 24 24" fill="none" xmlns="http://www.w3.org/2000/svg">
<path d="M12 2C8.134 2 5 5.134 5 9V19H19V9C19 5.134 15.866 2 12 2Z" fill="#FB4B4E"/>
<path d="M2 19H22M5 19V9C5 5.134 8.134 2 12 2C15.866 2 19 5.134 19 9V19H5Z" stroke="white" stroke-width="2" stroke-linecap="round" stroke-linejoin="round"/>
<path d="M12 22C12.663 22 13.2989 21.7366 13.7678 21.2678C14.2366 20.7989 14.5 20.163 14.5 19.5V19H9.5V19.5C9.5 20.163 9.76339 20.7989 10.2322 21.2678C10.7011 21.7366 11.337 22 12 22Z" fill="#FB4B4E" stroke="white" stroke-width="2" stroke-linecap="round" stroke-linejoin="round"/>
</svg>
