<svg width="28" height="28" viewBox="0 0 28 28" fill="none" xmlns="http://www.w3.org/2000/svg">
<path fill-rule="evenodd" clip-rule="evenodd" d="M4.66668 9.33334V4.66667H9.33334V9.33334H4.66668ZM9.33334 2.33334H4.66668C4.04784 2.33334 3.45435 2.57917 3.01676 3.01675C2.57918 3.45434 2.33334 4.04783 2.33334 4.66667V9.33334C2.33334 9.95217 2.57918 10.5457 3.01676 10.9833C3.45435 11.4208 4.04784 11.6667 4.66668 11.6667H9.33334C9.95218 11.6667 10.5457 11.4208 10.9833 10.9833C11.4208 10.5457 11.6667 9.95217 11.6667 9.33334V4.66667C11.6667 4.04783 11.4208 3.45434 10.9833 3.01675C10.5457 2.57917 9.95218 2.33334 9.33334 2.33334ZM23.3333 2.33334H18.6667C18.0478 2.33334 17.4543 2.57917 17.0168 3.01675C16.5792 3.45434 16.3333 4.04783 16.3333 4.66667V9.33334C16.3333 9.95217 16.5792 10.5457 17.0168 10.9833C17.4543 11.4208 18.0478 11.6667 18.6667 11.6667H23.3333C23.9522 11.6667 24.5457 11.4208 24.9833 10.9833C25.4208 10.5457 25.6667 9.95217 25.6667 9.33334V4.66667C25.6667 4.04783 25.4208 3.45434 24.9833 3.01675C24.5457 2.57917 23.9522 2.33334 23.3333 2.33334ZM18.6667 9.33334V4.66667H23.3333V9.33334H18.6667ZM23.3333 16.3333H18.6667C18.0478 16.3333 17.4543 16.5792 17.0168 17.0168C16.5792 17.4543 16.3333 18.0478 16.3333 18.6667V23.3333C16.3333 23.9522 16.5792 24.5457 17.0168 24.9833C17.4543 25.4208 18.0478 25.6667 18.6667 25.6667H20V23.3333H18.6667V18.6667H23.3333V23.3333H22V25.6667H23.3333C23.9522 25.6667 24.5457 25.4208 24.9833 24.9833C25.4208 24.5457 25.6667 23.9522 25.6667 23.3333V18.6667C25.6667 18.0478 25.4208 17.4543 24.9833 17.0168C24.5457 16.5792 23.9522 16.3333 23.3333 16.3333ZM9.33334 16.3333H4.66668C4.04784 16.3333 3.45435 16.5792 3.01676 17.0168C2.57918 17.4543 2.33334 18.0478 2.33334 18.6667V23.3333C2.33334 23.9522 2.57918 24.5457 3.01676 24.9833C3.45435 25.4208 4.04784 25.6667 4.66668 25.6667H9.33334C9.95218 25.6667 10.5457 25.4208 10.9833 24.9833C11.4208 24.5457 11.6667 23.9522 11.6667 23.3333V18.6667C11.6667 18.0478 11.4208 17.4543 10.9833 17.0168C10.5457 16.5792 9.95218 16.3333 9.33334 16.3333ZM4.66668 23.3333V18.6667H9.33334V23.3333H4.66668Z" fill="#FFA737"/>
</svg>
