<svg width="28" height="28" viewBox="0 0 28 28" fill="none" xmlns="http://www.w3.org/2000/svg">
<path fill-rule="evenodd" clip-rule="evenodd" d="M17.5 2.33334H10.5C9.57174 2.33334 8.6815 2.70208 8.02513 3.35846C7.36875 4.01484 7 4.90508 7 5.83334V22.1667C7 23.0949 7.36875 23.9852 8.02513 24.6415C8.6815 25.2979 9.57174 25.6667 10.5 25.6667H17.5C18.4283 25.6667 19.3185 25.2979 19.9749 24.6415C20.6313 23.9852 21 23.0949 21 22.1667V9.33334L18.6667 9.33334V22.1667C18.6667 22.4761 18.5437 22.7728 18.325 22.9916C18.1062 23.2104 17.8094 23.3333 17.5 23.3333H10.5C10.1906 23.3333 9.89383 23.2104 9.67504 22.9916C9.45625 22.7728 9.33333 22.4761 9.33333 22.1667V5.83334C9.33333 5.52392 9.45625 5.22717 9.67504 5.00838C9.89383 4.78959 10.1906 4.66667 10.5 4.66667H17.5C17.8094 4.66667 18.1062 4.78959 18.325 5.00838C18.5437 5.22717 18.6667 5.52392 18.6667 5.83334V7.33334L21 7.33334V5.83334C21 4.90508 20.6313 4.01484 19.9749 3.35846C19.3185 2.70208 18.4283 2.33334 17.5 2.33334ZM13.175 21.825C13.3938 22.0438 13.6906 22.1667 14 22.1667C14.3094 22.1667 14.6062 22.0438 14.825 21.825C15.0437 21.6062 15.1667 21.3094 15.1667 21C15.1667 20.6906 15.0437 20.3938 14.825 20.175C14.6062 19.9563 14.3094 19.8333 14 19.8333C13.6906 19.8333 13.3938 19.9563 13.175 20.175C12.9562 20.3938 12.8333 20.6906 12.8333 21C12.8333 21.3094 12.9562 21.6062 13.175 21.825Z" fill="#FFA737"/>
</svg>
