<svg width="28" height="28" viewBox="0 0 28 28" fill="none" xmlns="http://www.w3.org/2000/svg">
<path fill-rule="evenodd" clip-rule="evenodd" d="M14.826 10.4627H17.4953C17.6885 10.4625 17.8787 10.5103 18.0488 10.6018C18.2189 10.6932 18.3637 10.8255 18.4701 10.9867C18.5765 11.1479 18.6412 11.333 18.6584 11.5254C18.6756 11.7178 18.6448 11.9115 18.5687 12.089L17.607 14.3333H20.1448L20.713 13.0072C20.9409 12.4749 21.0333 11.8944 20.9817 11.3176C20.9301 10.7409 20.7363 10.186 20.4175 9.70259C20.0988 9.21919 19.6651 8.82243 19.1553 8.54786C18.6455 8.27328 18.0755 8.12948 17.4965 8.12934H17.1593V5.83334C17.1593 4.90508 16.7906 4.01484 16.1342 3.35846C15.4778 2.70208 14.5876 2.33334 13.6593 2.33334H10.5C9.57174 2.33334 8.6815 2.70208 8.02513 3.35846C7.36875 4.01484 7 4.90508 7 5.83334V12.7435C6.99983 13.6523 7.35314 14.5255 7.9852 15.1785C8.61727 15.8314 9.47853 16.213 10.3868 16.2423V22.6193C10.3874 23.3038 10.6241 23.9671 11.0569 24.4973C11.4897 25.0275 12.0922 25.3922 12.7627 25.5299C13.4332 25.6675 14.1306 25.5696 14.7373 25.2528C15.344 24.936 15.8228 24.4195 16.093 23.7907L19.288 16.3333H16.7501L13.9487 22.8713C13.8903 23.0065 13.7872 23.1174 13.6567 23.1854C13.5261 23.2534 13.3761 23.2744 13.232 23.2448C13.0878 23.2152 12.9582 23.1369 12.865 23.023C12.7717 22.9091 12.7206 22.7665 12.7202 22.6193V13.9813L10.4603 13.9102C10.1578 13.8999 9.87119 13.7724 9.6609 13.5547C9.45062 13.3371 9.33316 13.0462 9.33333 12.7435V5.83334C9.33333 5.52392 9.45625 5.22717 9.67504 5.00838C9.89383 4.78959 10.1906 4.66667 10.5 4.66667H13.6593C13.9688 4.66667 14.2655 4.78959 14.4843 5.00838C14.7031 5.22717 14.826 5.52392 14.826 5.83334V10.4627Z" fill="#FFA737"/>
</svg>
