<svg width="29" height="28" viewBox="0 0 29 28" fill="none" xmlns="http://www.w3.org/2000/svg">
<path d="M14.1247 7C8.32634 7 2.45801 8.80367 2.45801 12.25V16.9167C2.45801 20.363 8.32634 22.1667 14.1247 22.1667C19.923 22.1667 25.7913 20.363 25.7913 16.9167V12.25C25.7913 8.80367 19.923 7 14.1247 7ZM4.79134 16.9167V15.5202C5.53024 15.9386 6.31267 16.2751 7.12467 16.5235V18.718C5.59401 18.1183 4.79134 17.4043 4.79134 16.9167ZM18.7913 17.0893V19.3888C17.7798 19.5977 16.6132 19.7505 15.2913 19.8065V17.4732C16.4655 17.4264 17.635 17.2982 18.7913 17.0893ZM12.958 19.8077C11.782 19.7626 10.6116 19.623 9.45801 19.39V17.0905C10.5768 17.2935 11.7587 17.4253 12.958 17.4755V19.8077ZM21.1247 18.718V16.5235C21.9369 16.2756 22.7194 15.9391 23.458 15.5202V16.9167C23.458 17.4043 22.6565 18.1183 21.1247 18.718ZM14.1247 15.1667C8.08484 15.1667 4.79134 13.2405 4.79134 12.25C4.79134 11.2595 8.08484 9.33333 14.1247 9.33333C20.1645 9.33333 23.458 11.2595 23.458 12.25C23.458 13.2405 20.1645 15.1667 14.1247 15.1667Z" fill="#FFA737"/>
</svg>
