<svg width="24" height="24" viewBox="0 0 24 24" fill="none" xmlns="http://www.w3.org/2000/svg">
<path d="M19 2H5C4.44772 2 4 2.44772 4 3V21C4 21.5523 4.44772 22 5 22H19C19.5523 22 20 21.5523 20 21V3C20 2.44772 19.5523 2 19 2Z" fill="#FB4B4E" stroke="#373939" stroke-width="2" stroke-linejoin="round"/>
<path d="M10.5 17H16.5M10.5 7H16.5H10.5ZM10.5 12H16.5H10.5Z" stroke="white" stroke-width="2" stroke-linecap="round" stroke-linejoin="round"/>
<path fill-rule="evenodd" clip-rule="evenodd" d="M7.5 8C7.76522 8 8.01957 7.89464 8.20711 7.70711C8.39464 7.51957 8.5 7.26522 8.5 7C8.5 6.73478 8.39464 6.48043 8.20711 6.29289C8.01957 6.10536 7.76522 6 7.5 6C7.23478 6 6.98043 6.10536 6.79289 6.29289C6.60536 6.48043 6.5 6.73478 6.5 7C6.5 7.26522 6.60536 7.51957 6.79289 7.70711C6.98043 7.89464 7.23478 8 7.5 8ZM7.5 13C7.76522 13 8.01957 12.8946 8.20711 12.7071C8.39464 12.5196 8.5 12.2652 8.5 12C8.5 11.7348 8.39464 11.4804 8.20711 11.2929C8.01957 11.1054 7.76522 11 7.5 11C7.23478 11 6.98043 11.1054 6.79289 11.2929C6.60536 11.4804 6.5 11.7348 6.5 12C6.5 12.2652 6.60536 12.5196 6.79289 12.7071C6.98043 12.8946 7.23478 13 7.5 13ZM7.5 18C7.76522 18 8.01957 17.8946 8.20711 17.7071C8.39464 17.5196 8.5 17.2652 8.5 17C8.5 16.7348 8.39464 16.4804 8.20711 16.2929C8.01957 16.1054 7.76522 16 7.5 16C7.23478 16 6.98043 16.1054 6.79289 16.2929C6.60536 16.4804 6.5 16.7348 6.5 17C6.5 17.2652 6.60536 17.5196 6.79289 17.7071C6.98043 17.8946 7.23478 18 7.5 18Z" fill="white"/>
</svg>
