<svg width="28" height="28" viewBox="0 0 28 28" fill="none" xmlns="http://www.w3.org/2000/svg">
<path fill-rule="evenodd" clip-rule="evenodd" d="M9.87521 21.6248C8.78125 20.5308 8.16667 19.0471 8.16667 17.5C8.16667 15.4863 10.1033 11.6305 14 6.23817C17.4136 10.962 19.323 14.5066 19.744 16.6667H22.1046C21.6712 13.5962 18.97 8.81871 14 2.33334C8.55517 9.43834 5.83334 14.4935 5.83334 17.5C5.83334 19.6659 6.69375 21.7432 8.2253 23.2747C9.75684 24.8063 11.8341 25.6667 14 25.6667C16.1659 25.6667 18.2432 24.8063 19.7747 23.2747C21.0286 22.0209 21.8326 20.4013 22.0829 18.6667H19.7155C19.4884 19.779 18.9396 20.81 18.1248 21.6248C17.0308 22.7188 15.5471 23.3333 14 23.3333C12.4529 23.3333 10.9692 22.7188 9.87521 21.6248Z" fill="#FFA737"/>
</svg>
